<svg width="58" height="39" viewBox="0 0 58 39" fill="none" xmlns="http://www.w3.org/2000/svg">
<path d="M16.6241 31.8628C16.6035 32.1245 16.5202 32.3775 16.3813 32.6001C16.2425 32.8228 16.0521 33.0087 15.8264 33.142C14.7301 33.6879 13.5226 33.9718 12.2984 33.9717C11.1487 33.9736 10.0121 33.7282 8.96516 33.2521C7.91826 32.776 6.98552 32.0803 6.22996 31.212C5.4744 30.3437 4.91362 29.3231 4.58549 28.219C4.25736 27.1149 4.16954 25.9531 4.32794 24.8121C4.48635 23.671 4.8873 22.5774 5.50371 21.6049C6.12012 20.6325 6.93763 19.804 7.90101 19.1753C8.8644 18.5466 9.95121 18.1325 11.088 17.9608C12.2249 17.7891 13.3852 17.8639 14.4907 18.1801V13.7747C12.8084 13.4734 11.082 13.526 9.4211 13.9292C7.7602 14.3324 6.20115 15.0774 4.84302 16.1168C3.48489 17.1562 2.35736 18.4674 1.53209 19.9669C0.706816 21.4664 0.201834 23.1215 0.0492296 24.8271C-0.103375 26.5327 0.0997347 28.2515 0.645653 29.8742C1.19157 31.4969 2.06836 32.9881 3.22032 34.253C4.37227 35.5179 5.77421 36.5289 7.33704 37.2217C8.89988 37.9145 10.5894 38.2741 12.2984 38.2774C15.0871 38.2875 17.7926 37.3257 19.9514 35.5568C20.0957 35.4154 20.2225 35.2571 20.3291 35.0853L20.4101 34.9603C20.4607 34.8825 20.5619 34.6967 20.5787 34.673C20.67 34.4755 20.7418 34.2695 20.7929 34.0579C20.7917 34.0512 20.7917 34.0443 20.7929 34.0376C20.7946 34.0116 20.8003 33.9859 20.8098 33.9616C20.8182 33.9362 20.8232 33.8737 20.8334 33.8298C20.8435 33.7571 20.8536 33.6861 20.8637 33.6135C20.8738 33.5408 20.884 33.3617 20.8907 33.2992V28.7602L16.6207 22.6007L16.6241 31.8628Z" fill="#008FE3"/>
<path d="M41.2744 14.3477C39.4956 15.0692 37.9469 16.2635 36.7953 17.8017C36.7927 17.8016 36.7902 17.8007 36.7881 17.7992C36.786 17.7977 36.7844 17.7957 36.7835 17.7933L28.9484 29.0899L21.1166 17.7949C21.1132 17.7984 21.1092 17.8012 21.1048 17.8034C19.9526 16.2651 18.4034 15.0709 16.624 14.3493V18.8629L28.9517 36.6401L41.2744 18.8629V14.3477Z" fill="#008FE3"/>
<path d="M45.603 13.5703C44.8675 13.5706 44.1337 13.6385 43.4106 13.7731V18.1785C44.1239 17.9757 44.8615 17.8716 45.603 17.8693C46.8135 17.8676 48.0088 18.1401 49.0995 18.6664C50.1901 19.1927 51.148 19.9591 51.9016 20.9084C52.6551 21.8578 53.1848 22.9655 53.4511 24.1488C53.7174 25.3321 53.7134 26.5604 53.4394 27.7419C53.1654 28.9234 52.6285 30.0276 51.8688 30.972C51.1091 31.9164 50.1462 32.6766 49.0521 33.1957C47.958 33.7148 46.761 33.9795 45.5505 33.9699C44.34 33.9603 43.1473 33.6768 42.0615 33.1404C41.8366 33.0064 41.6472 32.8203 41.509 32.5977C41.3708 32.3751 41.2878 32.1226 41.2672 31.8612V22.5992L37.0039 28.762V33.2908C37.0074 33.3966 37.017 33.5021 37.0326 33.6068C37.039 33.68 37.0492 33.7527 37.0629 33.8248C37.068 33.8687 37.0759 33.9121 37.0865 33.9549C37.0883 33.9813 37.0928 34.0073 37.1 34.0327C37.0993 34.0383 37.0993 34.044 37.1 34.0496C37.1491 34.2613 37.2197 34.4674 37.3108 34.6647C37.3226 34.69 37.4272 34.8742 37.4795 34.952L37.5587 35.077C37.6674 35.2478 37.7941 35.4064 37.9365 35.5502C40.0976 37.3174 42.8035 38.2789 45.5928 38.2708C48.8615 38.2722 51.9967 36.9724 54.309 34.6573C56.6212 32.3423 57.9209 29.2017 57.9222 25.9265C57.9236 22.6512 56.6264 19.5096 54.3161 17.1926C52.0058 14.8757 48.8716 13.5733 45.603 13.572" fill="#008FE3"/>
<path d="M21.1187 14.0729C20.9976 13.5114 20.936 12.9388 20.9349 12.3644C20.9196 11.307 21.1129 10.257 21.5035 9.27469C21.8942 8.29233 22.4746 7.39694 23.2115 6.6399C23.9484 5.88286 24.8272 5.27906 25.7975 4.86317C26.7678 4.44727 27.8105 4.22745 28.8658 4.21633C29.921 4.2052 30.9681 4.40299 31.947 4.79834C32.9258 5.1937 33.8171 5.77883 34.5696 6.52017C35.3222 7.26151 35.9213 8.14447 36.3326 9.11838C36.7438 10.0923 36.959 11.138 36.966 12.1954V12.3644C36.9649 12.9388 36.9032 13.5114 36.7821 14.0729C38.123 13.0925 39.6485 12.3951 41.2663 12.0231C41.1823 8.80573 39.8478 5.74845 37.5471 3.50262C35.2464 1.2568 32.1615 0 28.9496 0C25.7377 0 22.6527 1.2568 20.352 3.50262C18.0514 5.74845 16.7168 8.80573 16.6328 12.0231C18.2503 12.3962 19.7756 13.0934 21.117 14.0729" fill="#008FE3"/>
</svg>
