<svg width="550" height="106" viewBox="0 0 550 106" fill="none" xmlns="http://www.w3.org/2000/svg">
<path d="M231.392 95V36.8182H252.131C256.657 36.8182 260.407 37.642 263.381 39.2898C266.354 40.9375 268.58 43.1913 270.057 46.0511C271.534 48.892 272.273 52.0928 272.273 55.6534C272.273 59.233 271.525 62.4527 270.028 65.3125C268.551 68.1534 266.316 70.4072 263.324 72.0739C260.35 73.7216 256.61 74.5455 252.102 74.5455H237.841V67.1023H251.307C254.167 67.1023 256.487 66.6098 258.267 65.625C260.047 64.6212 261.354 63.2576 262.188 61.5341C263.021 59.8106 263.438 57.8504 263.438 55.6534C263.438 53.4564 263.021 51.5057 262.188 49.8011C261.354 48.0966 260.038 46.7614 258.239 45.7955C256.458 44.8295 254.11 44.3466 251.193 44.3466H240.17V95H231.392ZM290.376 36.8182V95H281.882V36.8182H290.376ZM314.503 95.9659C311.738 95.9659 309.238 95.4545 307.003 94.4318C304.768 93.3902 302.997 91.8845 301.69 89.9148C300.402 87.9451 299.759 85.5303 299.759 82.6705C299.759 80.2083 300.232 78.1818 301.179 76.5909C302.126 75 303.404 73.7405 305.014 72.8125C306.624 71.8845 308.423 71.1837 310.412 70.7102C312.401 70.2367 314.427 69.8769 316.491 69.6307C319.105 69.3277 321.226 69.0814 322.855 68.892C324.484 68.6837 325.668 68.3523 326.406 67.8977C327.145 67.4432 327.514 66.7045 327.514 65.6818V65.483C327.514 63.0019 326.813 61.0795 325.412 59.7159C324.029 58.3523 321.965 57.6705 319.219 57.6705C316.359 57.6705 314.105 58.3049 312.457 59.5739C310.829 60.8239 309.702 62.2159 309.077 63.75L301.094 61.9318C302.041 59.2803 303.423 57.1402 305.241 55.5114C307.079 53.8636 309.19 52.6705 311.577 51.9318C313.963 51.1742 316.473 50.7955 319.105 50.7955C320.848 50.7955 322.694 51.0038 324.645 51.4205C326.615 51.8182 328.452 52.5568 330.156 53.6364C331.88 54.7159 333.291 56.2595 334.389 58.267C335.488 60.2557 336.037 62.8409 336.037 66.0227V95H327.741V89.0341H327.401C326.851 90.1326 326.027 91.2121 324.929 92.2727C323.83 93.3333 322.42 94.214 320.696 94.9148C318.973 95.6155 316.908 95.9659 314.503 95.9659ZM316.349 89.1477C318.698 89.1477 320.705 88.6837 322.372 87.7557C324.058 86.8277 325.336 85.6155 326.207 84.1193C327.098 82.6042 327.543 80.9848 327.543 79.2614V73.6364C327.24 73.9394 326.652 74.2235 325.781 74.4886C324.929 74.7348 323.954 74.9527 322.855 75.142C321.757 75.3125 320.687 75.4735 319.645 75.625C318.603 75.7576 317.732 75.8712 317.031 75.9659C315.384 76.1742 313.878 76.5246 312.514 77.017C311.17 77.5095 310.09 78.2197 309.276 79.1477C308.48 80.0568 308.082 81.2689 308.082 82.7841C308.082 84.8864 308.859 86.4773 310.412 87.5568C311.965 88.6174 313.944 89.1477 316.349 89.1477ZM367.72 51.3636V58.1818H343.885V51.3636H367.72ZM350.277 40.9091H358.771V82.1875C358.771 83.8352 359.018 85.0758 359.51 85.9091C360.002 86.7235 360.637 87.2822 361.413 87.5852C362.209 87.8693 363.071 88.0114 363.999 88.0114C364.68 88.0114 365.277 87.964 365.788 87.8693C366.3 87.7746 366.697 87.6989 366.982 87.642L368.516 94.6591C368.023 94.8485 367.322 95.0379 366.413 95.2273C365.504 95.4356 364.368 95.5492 363.004 95.5682C360.769 95.6061 358.686 95.2083 356.754 94.375C354.822 93.5417 353.26 92.2538 352.067 90.5114C350.874 88.7689 350.277 86.5814 350.277 83.9489V40.9091ZM397.884 51.3636V58.1818H373.224V51.3636H397.884ZM379.986 95V46.3068C379.986 43.5795 380.582 41.3163 381.776 39.517C382.969 37.6989 384.55 36.3447 386.52 35.4545C388.49 34.5455 390.63 34.0909 392.94 34.0909C394.645 34.0909 396.103 34.233 397.315 34.517C398.527 34.7822 399.427 35.0284 400.014 35.2557L398.026 42.1307C397.628 42.017 397.116 41.8845 396.491 41.733C395.866 41.5625 395.109 41.4773 394.219 41.4773C392.154 41.4773 390.677 41.9886 389.787 43.0114C388.916 44.0341 388.48 45.5114 388.48 47.4432V95H379.986ZM423.31 95.8807C419.219 95.8807 415.649 94.9432 412.599 93.0682C409.55 91.1932 407.183 88.5701 405.497 85.1989C403.812 81.8277 402.969 77.8883 402.969 73.3807C402.969 68.8542 403.812 64.8958 405.497 61.5057C407.183 58.1155 409.55 55.483 412.599 53.608C415.649 51.733 419.219 50.7955 423.31 50.7955C427.401 50.7955 430.971 51.733 434.02 53.608C437.069 55.483 439.437 58.1155 441.122 61.5057C442.808 64.8958 443.651 68.8542 443.651 73.3807C443.651 77.8883 442.808 81.8277 441.122 85.1989C439.437 88.5701 437.069 91.1932 434.02 93.0682C430.971 94.9432 427.401 95.8807 423.31 95.8807ZM423.338 88.75C425.99 88.75 428.187 88.0492 429.929 86.6477C431.671 85.2462 432.959 83.3807 433.793 81.0511C434.645 78.7216 435.071 76.1553 435.071 73.3523C435.071 70.5682 434.645 68.0114 433.793 65.6818C432.959 63.3333 431.671 61.4489 429.929 60.0284C428.187 58.608 425.99 57.8977 423.338 57.8977C420.668 57.8977 418.452 58.608 416.69 60.0284C414.948 61.4489 413.651 63.3333 412.798 65.6818C411.965 68.0114 411.548 70.5682 411.548 73.3523C411.548 76.1553 411.965 78.7216 412.798 81.0511C413.651 83.3807 414.948 85.2462 416.69 86.6477C418.452 88.0492 420.668 88.75 423.338 88.75ZM453.132 95V51.3636H461.342V58.2955H461.797C462.592 55.947 463.994 54.1004 466.001 52.7557C468.028 51.392 470.32 50.7102 472.876 50.7102C473.407 50.7102 474.032 50.7292 474.751 50.767C475.49 50.8049 476.068 50.8523 476.484 50.9091V59.0341C476.143 58.9394 475.537 58.8352 474.666 58.7216C473.795 58.589 472.924 58.5227 472.053 58.5227C470.045 58.5227 468.255 58.9489 466.683 59.8011C465.13 60.6345 463.899 61.7992 462.99 63.2955C462.081 64.7727 461.626 66.4583 461.626 68.3523V95H453.132ZM483.835 95V51.3636H491.989V58.4659H492.528C493.438 56.0606 494.924 54.1856 496.989 52.8409C499.053 51.4773 501.525 50.7955 504.403 50.7955C507.32 50.7955 509.763 51.4773 511.733 52.8409C513.722 54.2045 515.189 56.0795 516.136 58.4659H516.591C517.633 56.1364 519.29 54.2803 521.562 52.8977C523.835 51.4962 526.544 50.7955 529.688 50.7955C533.646 50.7955 536.875 52.036 539.375 54.517C541.894 56.9981 543.153 60.7386 543.153 65.7386V95H534.659V66.5341C534.659 63.5795 533.854 61.4394 532.244 60.1136C530.634 58.7879 528.712 58.125 526.477 58.125C523.712 58.125 521.562 58.9773 520.028 60.6818C518.494 62.3674 517.727 64.536 517.727 67.1875V95H509.261V65.9943C509.261 63.6269 508.523 61.7235 507.045 60.2841C505.568 58.8447 503.646 58.125 501.278 58.125C499.669 58.125 498.182 58.5511 496.818 59.4034C495.473 60.2367 494.384 61.4015 493.551 62.8977C492.737 64.3939 492.33 66.1269 492.33 68.0966V95H483.835Z" fill="#9F9F9F"/>
<path d="M167.473 16.9949C167.69 16.9939 167.908 16.9929 168.132 16.9919C168.587 16.9903 169.043 16.9896 169.498 16.9897C170.19 16.989 170.882 16.9835 171.574 16.9778C172.019 16.9769 172.465 16.9763 172.911 16.976C173.217 16.9728 173.217 16.9728 173.528 16.9695C175.295 16.9779 177.174 17.1427 178.538 18.4966C178.69 18.6415 178.843 18.7865 179 18.9359C180.056 20.3204 180.029 21.8472 180.022 23.5737C180.024 23.8362 180.025 24.0986 180.026 24.369C180.03 25.2482 180.029 26.1275 180.029 27.0068C180.03 27.6373 180.032 28.2678 180.034 28.8984C180.039 30.6116 180.041 32.3248 180.041 34.038C180.041 35.1089 180.043 36.1798 180.044 37.2507C180.049 40.9885 180.051 44.7263 180.051 48.4641C180.051 51.9452 180.056 55.4262 180.065 58.9072C180.072 61.8978 180.075 64.8884 180.075 67.879C180.075 69.6642 180.076 71.4494 180.082 73.2346C180.087 74.915 180.087 76.5953 180.083 78.2757C180.083 78.8908 180.084 79.506 180.088 80.1211C180.111 84.8376 179.666 88.5444 176.654 92.1702C174.405 94.5534 171.58 95.7795 168.459 95.7763C167.987 95.7769 167.987 95.7769 167.506 95.7776C167.163 95.7765 166.82 95.7754 166.467 95.7743C166.105 95.7743 165.742 95.7744 165.368 95.7744C164.375 95.7745 163.383 95.7727 162.39 95.7706C161.352 95.7687 160.314 95.7686 159.276 95.7682C157.311 95.7673 155.346 95.7648 153.381 95.7618C151.143 95.7584 148.906 95.7567 146.668 95.7552C142.067 95.7521 137.465 95.7468 132.863 95.7401C133.221 94.9446 133.595 94.1996 134.045 93.4622C134.171 93.2553 134.297 93.0483 134.427 92.8351C134.564 92.6122 134.701 92.3893 134.842 92.1596C134.986 91.9248 135.13 91.69 135.278 91.4482C143.141 78.6215 143.141 78.6215 144.979 77.9509C145.508 77.9202 146.038 77.9069 146.567 77.9033C146.894 77.9002 147.22 77.8971 147.556 77.8939C147.909 77.8917 148.262 77.8895 148.625 77.8873C149.179 77.881 149.732 77.8747 150.286 77.8681C151.651 77.852 153.017 77.8387 154.383 77.8299C155.149 77.8248 155.915 77.8173 156.681 77.8073C157.403 77.7979 158.125 77.7921 158.846 77.7901C159.174 77.7851 159.502 77.7801 159.84 77.7749C160.272 77.7713 160.272 77.7713 160.713 77.7676C161.626 77.6304 162.139 77.3422 162.877 76.7448C163.497 75.7259 163.496 75.3899 163.494 74.1977C163.495 73.8565 163.495 73.5153 163.496 73.1637C163.494 72.7892 163.492 72.4147 163.49 72.0288C163.49 71.6346 163.49 71.2404 163.49 70.8342C163.49 69.7528 163.487 68.6715 163.483 67.5901C163.48 66.4602 163.48 65.3302 163.479 64.2003C163.477 62.0604 163.473 59.9205 163.467 57.7806C163.461 55.3444 163.458 52.9083 163.455 50.4722C163.449 45.4607 163.44 40.4492 163.428 35.4377C163.031 35.3826 162.634 35.3294 162.238 35.277C162.017 35.2471 161.796 35.2173 161.568 35.1865C160.143 35.0707 158.812 35.7791 157.732 36.7663C157.289 37.3025 156.917 37.8561 156.544 38.4529C156.397 38.6864 156.25 38.92 156.099 39.1607C155.741 39.7452 155.386 40.3324 155.034 40.9215C154.16 42.379 153.26 43.8163 152.362 45.2557C152.183 45.543 152.004 45.8302 151.819 46.1262C150.542 48.174 149.264 50.2205 147.984 52.2665C146.843 54.0927 145.704 55.9209 144.566 57.7496C143.137 60.0445 141.707 62.3375 140.274 64.629C139.133 66.455 137.994 68.283 136.856 70.1116C134.833 73.3621 132.804 76.6087 130.775 79.8545C130.335 80.5579 129.895 81.2613 129.456 81.9647C129.311 82.1962 129.166 82.4276 129.017 82.666C128.189 83.9917 127.362 85.3185 126.536 86.6464C126.352 86.943 126.168 87.2397 125.977 87.5453C125.621 88.1188 125.265 88.6924 124.909 89.2662C124.586 89.7846 124.263 90.3023 123.939 90.8191C123.664 91.2585 123.392 91.7 123.124 92.1444C122.435 93.2622 121.806 93.9883 120.73 94.6471C120.385 94.8651 120.385 94.8651 120.032 95.0876C118.864 95.7074 117.871 95.7772 116.577 95.7743C116.235 95.7743 115.894 95.7742 115.542 95.7742C115.17 95.7727 114.799 95.7711 114.427 95.7695C114.046 95.7689 113.665 95.7685 113.284 95.7682C112.282 95.767 111.281 95.7641 110.28 95.7608C109.257 95.7577 108.235 95.7563 107.212 95.7548C105.207 95.7515 103.202 95.7464 101.197 95.7401C101.666 94.382 102.312 93.2646 103.073 92.0842C103.349 91.6509 103.625 91.2174 103.9 90.784C104.044 90.5581 104.189 90.3323 104.337 90.0997C105.064 88.9571 105.781 87.8069 106.498 86.657C106.646 86.4199 106.794 86.1827 106.947 85.9384C108.282 83.8001 109.615 81.6593 110.947 79.5186C112.795 76.5497 114.649 73.5848 116.503 70.6201C118.417 67.5575 120.329 64.4927 122.238 61.4257C123.491 59.4131 124.746 57.4026 126.003 55.3929C127.144 53.5668 128.283 51.7388 129.421 49.9103C131.154 47.1268 132.89 44.3459 134.627 41.5665C135.221 40.6171 135.814 39.6677 136.407 38.7181C136.705 38.2418 137.003 37.7656 137.301 37.2896C138.065 36.0693 138.825 34.8465 139.579 33.6192C145.03 24.7707 151.044 19.7793 160.663 17.71C162.93 17.2492 165.167 16.9987 167.473 16.9949Z" fill="#1E89CA"/>
<path d="M72.4629 30.6898C73.1503 31.3547 73.8213 32.0345 74.4882 32.7238C74.6977 32.9337 74.9071 33.1436 75.1229 33.3598C77.8518 36.1929 80.5022 40.1204 81.3721 44.1813C79.9275 44.2713 78.4842 44.3366 77.0378 44.38C76.547 44.3981 76.0563 44.4227 75.5661 44.4542C71.4905 44.7092 71.4905 44.7092 70.071 43.4214C69.4467 42.4991 68.934 41.5687 68.4304 40.5631C66.7644 38.2762 64.6909 36.552 62.3726 35.1359C62.1557 34.9972 61.9389 34.8584 61.7154 34.7155C56.585 31.6419 49.5132 31.1415 43.9002 32.7308C40.5478 33.813 37.5473 35.7642 34.8371 38.151C34.6497 38.3069 34.4623 38.4627 34.2692 38.6233C29.7132 42.6365 26.4405 49.2989 25.7504 55.6387C25.3276 64.1431 26.9613 71.0445 32.114 77.5872C36.6442 83.1165 42.6536 86.1917 49.3997 86.7615C56.0549 86.9902 62.1952 84.141 66.9962 79.2094C68.5078 77.6106 70.0156 75.95 71.184 74.0309C72.0044 73.9505 72.767 73.9261 73.5869 73.9426C73.8245 73.9438 74.062 73.9451 74.3068 73.9464C75.0672 73.9515 75.8275 73.9629 76.5878 73.9744C77.1027 73.9789 77.6175 73.983 78.1324 73.9867C79.396 73.9967 80.6594 74.0123 81.9228 74.0309C80.8772 76.408 79.8356 78.7131 78.4121 80.8526C78.2714 81.0669 78.1307 81.2813 77.9857 81.5021C76.6684 83.4741 75.239 85.2668 73.6622 86.9959C73.4489 87.233 73.2355 87.4701 73.0157 87.7143C70.0681 90.8073 66.4541 92.9848 62.648 94.5337C62.3764 94.6475 62.1049 94.7614 61.8251 94.8788C53.2202 98.1417 43.1075 97.1749 34.9361 92.9943C32.3773 91.6118 30.1309 89.9093 27.9532 87.9004C27.7073 87.6769 27.4613 87.4534 27.2078 87.2232C25.4998 85.6114 24.0932 83.8247 22.7215 81.8702C22.5344 81.6133 22.3474 81.3564 22.1547 81.0917C17.8862 75.0147 15.9436 67.5035 16.0053 59.9037C16.0097 59.2568 16.0053 58.6105 16 57.9636C15.9866 48.3325 19.6275 39.6167 25.6955 32.7545C38.1081 19.2596 59.1568 18.272 72.4629 30.6898Z" fill="#1E89CA"/>
<path d="M188.484 38.7542C193.846 38.7542 199.207 38.7542 204.73 38.7542C204.749 44.5492 204.764 50.3442 204.773 56.1393C204.777 58.8303 204.783 61.5213 204.793 64.2123C204.801 66.5591 204.806 68.9058 204.808 71.2526C204.809 72.494 204.812 73.7354 204.818 74.9769C204.823 76.1479 204.825 77.3189 204.824 78.49C204.824 78.9173 204.826 79.3447 204.829 79.772C204.86 84.2272 204.185 88.2233 201.385 91.6117C197.517 95.4814 193.621 95.7398 188.484 95.7398C188.484 76.9346 188.484 58.1293 188.484 38.7542Z" fill="#1E89CA"/>
<path d="M195.645 8C196.281 8 196.917 8 197.572 8C198.399 9.71165 199.009 11.3927 199.534 13.2388C199.671 13.719 199.81 14.1988 199.95 14.678C200.009 14.8869 200.068 15.0957 200.129 15.3109C200.314 15.9037 200.314 15.9037 200.877 16.4423C201.638 16.5396 201.638 16.5396 202.528 16.5354C203.023 16.5467 203.023 16.5467 203.528 16.5583C204.226 16.5689 204.924 16.5783 205.623 16.5866C206.118 16.5986 206.118 16.5986 206.624 16.6107C206.927 16.6148 207.231 16.6189 207.544 16.623C208.311 16.7438 208.311 16.7438 208.817 17.1528C209.137 17.6484 209.137 17.6484 209.34 18.474C209.011 20.0696 207.9 20.7023 206.728 21.6246C206.501 21.8101 206.274 21.9957 206.04 22.1869C205.615 22.5329 205.189 22.8766 204.761 23.2171C204.196 23.6665 203.637 24.1231 203.08 24.5831C203.349 26.3028 203.717 27.9372 204.215 29.5958C204.655 31.1232 204.924 32.3361 204.732 33.93C203.906 34.533 203.906 34.533 203.304 34.5212C202.169 34.0971 201.279 33.3708 200.309 32.6109C200.114 32.4616 199.919 32.3124 199.719 32.1586C198.21 30.9982 198.21 30.9982 197.522 30.3378C197.026 29.9385 197.026 29.9385 196.378 30.0852C195.579 30.3322 195.091 30.6608 194.424 31.1987C194.2 31.3746 193.976 31.5505 193.745 31.7317C193.279 32.1041 192.815 32.4778 192.351 32.8529C190.634 34.1948 190.634 34.1948 189.457 34.3905C188.761 34.2315 188.761 34.2315 188.21 33.6285C188.005 31.4969 188.689 29.6584 189.299 27.6607C189.375 27.403 189.45 27.1453 189.528 26.8798C189.599 26.6485 189.669 26.4172 189.742 26.1789C189.89 25.3307 189.837 24.7991 189.587 23.9801C189.15 23.4443 189.15 23.4443 188.575 23.0179C188.37 22.8513 188.164 22.6848 187.953 22.5132C187.737 22.3443 187.521 22.1754 187.298 22.0014C184.441 19.7181 184.441 19.7181 183.805 18.8544C183.839 17.8933 183.839 17.8933 184.08 17.0453C184.76 16.6728 185.251 16.6866 186.012 16.659C186.427 16.6421 186.427 16.6421 186.85 16.6249C187.14 16.6144 187.43 16.6039 187.728 16.5931C188.568 16.5622 189.407 16.5288 190.247 16.4806C190.807 16.4507 191.369 16.4423 191.93 16.4423C192.757 16.0788 192.807 15.8858 193.16 15.0196C193.318 14.5416 193.469 14.0608 193.614 13.578C193.776 13.0824 193.937 12.5869 194.099 12.0916C194.175 11.8535 194.251 11.6153 194.329 11.3699C194.707 10.2151 195.175 9.11225 195.645 8Z" fill="#FCCB12"/>
<path d="M192.891 16.4601C196.941 16.4286 200.991 16.4287 205.041 16.5544C205.357 16.5611 205.673 16.5679 205.999 16.5749C206.437 16.591 206.437 16.591 206.884 16.6074C207.141 16.6152 207.397 16.6231 207.661 16.6313C208.427 16.7851 208.675 16.9889 209.137 17.6662C209.339 18.4918 209.339 18.4918 209.137 19.4752C208.416 20.319 207.582 20.9698 206.727 21.6424C206.5 21.8279 206.273 22.0135 206.039 22.2047C205.614 22.5507 205.188 22.8944 204.76 23.2349C204.195 23.6843 203.636 24.1409 203.079 24.6009C203.348 26.3206 203.716 27.955 204.215 29.6136C204.654 31.141 204.923 32.3539 204.731 33.9478C203.905 34.5508 203.905 34.5508 203.301 34.5379C202.178 34.1186 201.302 33.4015 200.342 32.6475C199.961 32.3534 199.58 32.0593 199.199 31.7654C199.018 31.6197 198.836 31.474 198.649 31.3239C198.073 30.8725 198.21 30.7501 197.296 30.3297C196.607 29.6042 196.47 29.7266 196.37 28.9815C196.364 28.0023 196.397 27.0302 196.436 26.052C196.472 21.94 195.335 19.7615 192.891 16.7616C192.891 16.6621 192.891 16.5626 192.891 16.4601Z" fill="#F59021"/>
<path d="M88.5312 55.0361C92.7111 55.0361 96.891 55.0361 101.198 55.0361C101.198 57.8221 101.198 60.6081 101.198 63.4785C97.0177 63.4785 92.8378 63.4785 88.5312 63.4785C88.5312 60.6925 88.5312 57.9065 88.5312 55.0361Z" fill="#D1D2D4"/>
<path d="M196.625 8C196.937 8.00622 197.25 8.01244 197.572 8.01884C198.396 9.72988 199.017 11.4157 199.551 13.2576C199.692 13.7375 199.834 14.2172 199.976 14.6969C200.036 14.9057 200.097 15.1146 200.16 15.3298C200.32 15.8812 200.32 15.8812 200.601 16.4612C199.78 16.4694 198.96 16.4753 198.14 16.48C197.796 16.4838 197.796 16.4838 197.446 16.4877C195.905 16.4942 194.42 16.3742 192.891 16.1597C193.376 14.2604 193.947 12.4094 194.577 10.5628C194.65 10.3473 194.724 10.1318 194.799 9.90977C195.45 8.02258 195.45 8.02258 196.625 8Z" fill="#F9D20B"/>
<path d="M201.427 16.5453C202.649 16.5191 203.87 16.503 205.092 16.4888C205.44 16.4812 205.788 16.4736 206.146 16.4658C206.479 16.4629 206.812 16.46 207.154 16.457C207.462 16.4522 207.769 16.4475 208.085 16.4426C208.861 16.5453 208.861 16.5453 209.368 16.9515C209.687 17.4498 209.687 17.4498 209.889 18.2755C209.563 19.8685 208.463 20.502 207.295 21.426C207.07 21.6116 206.846 21.7972 206.614 21.9884C205.556 22.8539 204.219 23.8518 203.079 24.5834C202.756 23.4471 202.711 22.1111 202.391 20.9738C202.299 20.6506 202.207 20.3274 202.112 19.9944C202.025 19.6845 201.938 19.3745 201.848 19.0552C201.768 18.7694 201.687 18.4836 201.604 18.1891C201.427 17.4498 201.427 17.4498 201.427 16.5453Z" fill="#FAA818"/>
<path d="M202.253 25.1863C202.526 25.2858 202.798 25.3853 203.079 25.4878C203.325 26.0373 203.325 26.0373 203.521 26.7515C203.629 27.1419 203.629 27.1419 203.739 27.5401C203.847 27.9514 203.847 27.9514 203.957 28.371C204.07 28.7701 204.07 28.7701 204.184 29.1772C204.624 30.8075 204.894 32.23 204.731 33.9301C203.905 34.5331 203.905 34.5331 203.304 34.5214C202.169 34.0972 201.279 33.3709 200.309 32.611C200.114 32.4618 199.919 32.3125 199.719 32.1587C198.808 31.4587 197.906 30.7497 197.021 30.0105C197.337 28.973 197.539 28.8367 198.338 28.2367C198.547 28.0778 198.756 27.9188 198.972 27.755C199.191 27.5914 199.411 27.4278 199.637 27.2592C200.071 26.9319 200.504 26.6045 200.937 26.2769C201.13 26.1327 201.323 25.9884 201.521 25.8398C201.965 25.5189 201.965 25.5189 202.253 25.1863Z" fill="#FAB315"/>
<path d="M190.231 24.9036C192.318 26.3177 194.321 27.8215 196.289 29.4262C195.203 30.6947 194.029 31.6947 192.727 32.6863C192.536 32.8377 192.346 32.9891 192.151 33.1451C191.035 33.9961 190.265 34.5152 188.854 34.2504C188.304 33.6474 188.304 33.6474 188.209 32.77C188.252 31.1375 188.795 29.6215 189.267 28.0883C189.359 27.7814 189.451 27.4746 189.546 27.1584C189.772 26.4058 190 25.6543 190.231 24.9036Z" fill="#F8AD18"/>
<path d="M199.851 27.6821C200.575 27.9838 200.793 28.3316 201.231 29.0272C201.374 29.252 201.517 29.4769 201.664 29.7085C201.81 29.945 201.956 30.1815 202.106 30.4252C202.254 30.6582 202.402 30.8912 202.555 31.1313C203.194 32.147 203.789 33.1351 204.274 34.2506C203.811 34.4567 203.811 34.4567 203.173 34.5521C202.509 34.2047 202.509 34.2047 201.779 33.6664C201.516 33.4737 201.252 33.2809 200.981 33.0823C199.678 32.085 198.39 31.0689 197.115 30.0295C197.413 29.0517 197.571 28.8789 198.303 28.2958C198.466 28.1605 198.63 28.0253 198.799 27.8859C199.318 27.6174 199.318 27.6174 199.851 27.6821Z" fill="#FEC715"/>
<path d="M209.136 18.2515C209.227 18.6495 209.361 18.8779 209.455 19.2879C209.042 20.0417 206.5 22.0639 205.674 22.667C206.009 22.38 205.345 22.9483 205.674 22.667C205.474 22.8391 205.273 23.0112 205.067 23.1885C204.426 23.7023 203.765 24.1469 203.079 24.5832C202.939 24.1 202.802 23.6162 202.666 23.1322C202.589 22.8628 202.469 22.5994 202.39 22.3219C202.209 21.574 202.253 21.5681 202.253 20.6636C204.524 19.8676 206.796 19.0716 209.136 18.2515Z" fill="#FAD20A"/>
<path d="M196.84 22.1899C197.625 23.2641 198.377 24.3368 199.112 25.45C199.306 25.7443 199.501 26.0385 199.701 26.3416C199.847 26.5635 199.993 26.7855 200.144 27.0141C199.273 27.9956 198.402 28.9197 197.391 29.7277C197.209 29.7277 197.027 29.7277 196.84 29.7277C196.84 27.2403 196.84 24.7528 196.84 22.1899Z" fill="#F9A21F"/>
<path d="M193.261 16.4609C194.442 16.4609 195.623 16.4609 196.84 16.4609C196.84 18.2519 196.84 20.0429 196.84 21.8881C195.793 20.7418 195.068 19.8226 194.276 18.4961C194.084 18.1774 193.892 17.8587 193.694 17.5304C193.261 16.7624 193.261 16.7624 193.261 16.4609Z" fill="#F9A21F"/>
</svg>
