<svg width="26" height="27" viewBox="0 0 26 27" fill="none" xmlns="http://www.w3.org/2000/svg">
<path d="M21.6429 3.10284C21.9064 3.33948 22.1636 3.58142 22.4193 3.82675C22.4996 3.90145 22.5798 3.97611 22.6626 4.0531C23.7086 5.06135 24.7245 6.45909 25.058 7.90429C24.5042 7.93636 23.951 7.9596 23.3966 7.97502C23.2084 7.98149 23.0203 7.99026 22.8324 8.00146C21.2702 8.09216 21.2702 8.09216 20.7261 7.63387C20.4868 7.30563 20.2903 6.97451 20.0973 6.61667C19.4586 5.80275 18.6638 5.18914 17.7752 4.68518C17.6921 4.63579 17.609 4.58641 17.5233 4.53553C15.5567 3.4417 12.846 3.26358 10.6945 3.82922C9.40948 4.21434 8.25937 4.9088 7.22049 5.7582C7.14867 5.8137 7.07685 5.86916 7.00282 5.92629C5.25644 7.35454 4.00198 9.72562 3.73746 11.9819C3.5754 15.0085 4.20161 17.4646 6.17668 19.7931C7.91319 21.7609 10.2167 22.8554 12.8025 23.0581C15.3536 23.1395 17.7072 22.1255 19.5475 20.3704C20.1269 19.8014 20.7049 19.2104 21.1527 18.5274C21.4672 18.4989 21.7595 18.4901 22.0738 18.496C22.1648 18.4965 22.2559 18.4969 22.3497 18.4974C22.6412 18.4992 22.9326 18.5032 23.2241 18.5073C23.4214 18.5089 23.6188 18.5104 23.8161 18.5117C24.3005 18.5153 24.7848 18.5208 25.2691 18.5274C24.8683 19.3734 24.469 20.1938 23.9233 20.9552C23.8694 21.0315 23.8155 21.1078 23.7599 21.1864C23.255 21.8882 22.707 22.5262 22.1026 23.1415C22.0209 23.2259 21.9391 23.3103 21.8549 23.3972C20.725 24.498 19.3397 25.2729 17.8808 25.8241C17.7767 25.8647 17.6726 25.9052 17.5654 25.9469C14.267 27.1082 10.3907 26.7641 7.25843 25.2763C6.27764 24.7843 5.41655 24.1784 4.58183 23.4634C4.48754 23.3839 4.39325 23.3044 4.29612 23.2224C3.6414 22.6488 3.10222 22.0129 2.57645 21.3174C2.50473 21.2259 2.43302 21.1345 2.35914 21.0403C0.722997 18.8775 -0.0216097 16.2044 0.00202524 13.4998C0.00372318 13.2695 0.00202532 13.0395 1.42998e-05 12.8093C-0.0051532 9.38167 1.3905 6.27981 3.71643 3.83762C8.47432 -0.965021 16.5426 -1.3165 21.6429 3.10284Z" fill="#1E89CA"/>
</svg>
