<svg width="167" height="87" viewBox="0 0 167 87" fill="none" xmlns="http://www.w3.org/2000/svg">
<path d="M127.186 16.9589C127.354 16.9581 127.522 16.9573 127.695 16.9565C128.048 16.9553 128.4 16.9548 128.753 16.9548C129.288 16.9543 129.823 16.9501 130.358 16.9457C130.703 16.945 131.048 16.9445 131.393 16.9443C131.629 16.9418 131.629 16.9418 131.87 16.9392C133.237 16.9457 134.691 17.0732 135.746 18.1206C135.864 18.2328 135.982 18.3449 136.104 18.4605C136.921 19.5316 136.899 20.7128 136.895 22.0485C136.895 22.2515 136.896 22.4546 136.897 22.6638C136.9 23.344 136.9 24.0242 136.899 24.7045C136.901 25.1923 136.902 25.6801 136.904 26.1679C136.908 27.4933 136.909 28.8187 136.909 30.1441C136.909 30.9726 136.91 31.8011 136.911 32.6296C136.915 35.5213 136.917 38.413 136.916 41.3048C136.916 43.9978 136.921 46.6909 136.927 49.3839C136.933 51.6976 136.935 54.0112 136.935 56.3249C136.935 57.706 136.936 59.0871 136.941 60.4682C136.945 61.7682 136.945 63.0682 136.942 64.3682C136.941 64.8441 136.942 65.32 136.945 65.7959C136.963 69.4448 136.619 72.3125 134.289 75.1176C132.548 76.9613 130.363 77.9099 127.949 77.9074C127.584 77.9079 127.584 77.9079 127.211 77.9084C126.946 77.9075 126.681 77.9067 126.408 77.9058C126.127 77.9059 125.846 77.9059 125.557 77.9059C124.789 77.906 124.021 77.9046 123.253 77.903C122.45 77.9015 121.647 77.9014 120.844 77.9011C119.324 77.9004 117.804 77.8985 116.283 77.8962C114.552 77.8935 112.821 77.8923 111.09 77.8911C107.53 77.8886 103.97 77.8846 100.41 77.8794C100.687 77.2639 100.976 76.6876 101.325 76.1171C101.422 75.957 101.52 75.7969 101.62 75.632C101.726 75.4595 101.832 75.2871 101.941 75.1094C102.052 74.9277 102.164 74.7461 102.278 74.559C108.362 64.6357 108.362 64.6357 109.783 64.1169C110.192 64.0932 110.602 64.0829 111.012 64.0801C111.265 64.0777 111.517 64.0753 111.777 64.0729C112.05 64.0712 112.323 64.0695 112.604 64.0677C113.032 64.0628 113.461 64.058 113.889 64.0528C114.945 64.0404 116.002 64.0301 117.059 64.0233C117.651 64.0193 118.244 64.0136 118.837 64.0058C119.395 63.9986 119.953 63.9941 120.512 63.9925C120.766 63.9886 121.019 63.9848 121.281 63.9808C121.615 63.978 121.615 63.978 121.956 63.9751C122.662 63.869 123.059 63.646 123.63 63.1839C124.11 62.3956 124.109 62.1357 124.107 61.2133C124.108 60.9493 124.108 60.6854 124.109 60.4134C124.107 60.1236 124.106 59.8339 124.104 59.5353C124.104 59.2304 124.104 58.9254 124.105 58.6112C124.105 57.7746 124.102 56.938 124.099 56.1014C124.097 55.2272 124.096 54.3531 124.096 53.4789C124.094 51.8234 124.091 50.1678 124.087 48.5123C124.082 46.6276 124.08 44.743 124.077 42.8583C124.073 38.9812 124.065 35.1041 124.056 31.227C123.749 31.1843 123.442 31.1432 123.135 31.1026C122.965 31.0795 122.794 31.0565 122.618 31.0327C121.515 30.9431 120.485 31.4911 119.65 32.2548C119.307 32.6696 119.019 33.098 118.73 33.5596C118.617 33.7403 118.504 33.9211 118.387 34.1072C118.109 34.5594 117.835 35.0137 117.562 35.4695C116.886 36.5971 116.19 37.709 115.495 38.8226C115.356 39.0448 115.218 39.2671 115.075 39.496C114.087 41.0803 113.098 42.6635 112.108 44.2464C111.225 45.6592 110.344 47.0736 109.464 48.4884C108.359 50.2638 107.252 52.0378 106.143 53.8106C105.26 55.2233 104.379 56.6375 103.499 58.0521C101.934 60.5668 100.365 63.0786 98.7945 65.5896C98.4543 66.1338 98.1141 66.678 97.7739 67.2222C97.662 67.4012 97.55 67.5803 97.4347 67.7648C96.7938 68.7903 96.1541 69.8168 95.5155 70.8441C95.3728 71.0736 95.2301 71.3031 95.0831 71.5395C94.8073 71.9832 94.5317 72.427 94.2562 72.8709C94.0068 73.272 93.7568 73.6725 93.5058 74.0723C93.2932 74.4122 93.0828 74.7538 92.8756 75.0976C92.3425 75.9624 91.8556 76.5241 91.0236 77.0338C90.7563 77.2025 90.7563 77.2025 90.4836 77.3746C89.5798 77.8541 88.812 77.9081 87.8106 77.9058C87.5462 77.9058 87.2818 77.9058 87.0095 77.9058C86.7221 77.9046 86.4347 77.9034 86.1473 77.9021C85.8524 77.9017 85.5575 77.9014 85.2626 77.9011C84.488 77.9002 83.7133 77.898 82.9387 77.8954C82.1476 77.893 81.3565 77.8919 80.5654 77.8907C79.0143 77.8882 77.4632 77.8843 75.9121 77.8794C76.2745 76.8287 76.7742 75.9643 77.3633 75.0511C77.5767 74.7158 77.79 74.3805 78.0033 74.0451C78.1148 73.8704 78.2263 73.6957 78.3412 73.5157C78.9035 72.6317 79.458 71.7419 80.0129 70.8523C80.1275 70.6689 80.2421 70.4854 80.3601 70.2964C81.3934 68.6421 82.4242 66.9859 83.4551 65.3297C84.8849 63.0329 86.3188 60.7391 87.7529 58.4455C89.2343 56.0762 90.7134 53.7051 92.1902 51.3323C93.1594 49.7754 94.1306 48.2199 95.1028 46.6651C95.9858 45.2524 96.8668 43.8382 97.7473 42.4236C99.0876 40.2702 100.431 38.1187 101.775 35.9684C102.234 35.234 102.693 34.4994 103.152 33.7648C103.382 33.3963 103.613 33.0279 103.843 32.6597C104.434 31.7156 105.022 30.7696 105.606 29.8202C109.823 22.9745 114.476 19.113 121.918 17.5121C123.671 17.1556 125.402 16.9618 127.186 16.9589Z" fill="#1E89CA"/>
<path d="M53.682 27.5539C54.2138 28.0683 54.7329 28.5942 55.2489 29.1275C55.4109 29.2899 55.5729 29.4523 55.7399 29.6196C57.8511 31.8113 59.9015 34.8498 60.5745 37.9915C59.4569 38.0611 58.3403 38.1116 57.2213 38.1452C56.8416 38.1592 56.462 38.1783 56.0827 38.2026C52.9297 38.3999 52.9297 38.3999 51.8315 37.4036C51.3486 36.6901 50.9519 35.9703 50.5623 35.1923C49.2734 33.4231 47.6693 32.0891 45.8758 30.9936C45.708 30.8863 45.5402 30.7789 45.3673 30.6683C41.3982 28.2905 35.9272 27.9033 31.5848 29.1329C28.9912 29.9701 26.6699 31.4797 24.5732 33.3262C24.4282 33.4468 24.2832 33.5674 24.1338 33.6916C20.6091 36.7964 18.0772 41.9507 17.5433 46.8554C17.2162 53.4347 18.4801 58.7739 22.4664 63.8357C25.9712 68.1134 30.6203 70.4925 35.8394 70.9333C40.9881 71.1102 45.7385 68.906 49.4528 65.0906C50.6222 63.8538 51.7887 62.5691 52.6926 61.0844C53.3273 61.0222 53.9172 61.0033 54.5516 61.016C54.7354 61.017 54.9192 61.018 55.1085 61.019C55.6968 61.0229 56.285 61.0317 56.8732 61.0406C57.2715 61.0441 57.6698 61.0473 58.0682 61.0502C59.0457 61.0579 60.0231 61.07 61.0006 61.0844C60.1916 62.9234 59.3858 64.7067 58.2845 66.3619C58.1757 66.5277 58.0668 66.6936 57.9547 66.8644C56.9355 68.39 55.8297 69.7769 54.6098 71.1146C54.4448 71.298 54.2797 71.4814 54.1097 71.6704C51.8293 74.0632 49.0334 75.7479 46.0888 76.9461C45.8787 77.0342 45.6686 77.1223 45.4522 77.2131C38.7951 79.7375 30.9715 78.9895 24.6497 75.7552C22.6701 74.6856 20.9322 73.3685 19.2475 71.8144C19.0572 71.6415 18.8669 71.4686 18.6708 71.2905C17.3494 70.0435 16.2612 68.6612 15.2 67.1492C15.0553 66.9504 14.9106 66.7516 14.7615 66.5469C11.4592 61.8454 9.95638 56.0345 10.0041 50.155C10.0075 49.6545 10.0041 49.1545 10 48.6541C9.9896 41.203 12.8064 34.4601 17.5009 29.1512C27.1037 18.7111 43.3879 17.947 53.682 27.5539Z" fill="#1E89CA"/>
<path d="M143.44 33.7927C147.588 33.7927 151.736 33.7927 156.009 33.7927C156.023 38.276 156.035 42.7593 156.042 47.2426C156.045 49.3244 156.05 51.4063 156.057 53.4882C156.064 55.3037 156.068 57.1193 156.069 58.9348C156.07 59.8953 156.072 60.8557 156.077 61.8161C156.081 62.7221 156.082 63.628 156.081 64.534C156.081 64.8646 156.083 65.1952 156.085 65.5258C156.11 68.9725 155.587 72.0641 153.421 74.6855C150.428 77.6793 147.414 77.8792 143.44 77.8792C143.44 63.3307 143.44 48.7821 143.44 33.7927Z" fill="#1E89CA"/>
<path d="M148.981 10C149.473 10 149.966 10 150.473 10C151.112 11.3242 151.584 12.6247 151.99 14.0529C152.096 14.4245 152.203 14.7957 152.312 15.1664C152.357 15.328 152.403 15.4895 152.451 15.656C152.593 16.1146 152.593 16.1146 153.029 16.5313C153.618 16.6066 153.618 16.6066 154.306 16.6033C154.689 16.6121 154.689 16.6121 155.08 16.6211C155.62 16.6293 156.16 16.6366 156.701 16.6429C157.084 16.6522 157.084 16.6522 157.475 16.6616C157.71 16.6648 157.945 16.6679 158.187 16.6711C158.781 16.7646 158.781 16.7646 159.172 17.081C159.42 17.4644 159.42 17.4644 159.576 18.1031C159.322 19.3376 158.463 19.827 157.556 20.5405C157.38 20.6841 157.204 20.8277 157.023 20.9756C156.695 21.2433 156.365 21.5091 156.034 21.7726C155.597 22.1202 155.164 22.4735 154.733 22.8294C154.942 24.1598 155.226 25.4243 155.612 26.7074C155.952 27.8891 156.16 28.8274 156.011 30.0605C155.372 30.527 155.372 30.527 154.907 30.5179C154.029 30.1898 153.34 29.6279 152.59 29.04C152.439 28.9245 152.288 28.8091 152.133 28.6901C150.966 27.7924 150.966 27.7924 150.433 27.2814C150.05 26.9725 150.05 26.9725 149.549 27.086C148.93 27.2771 148.552 27.5313 148.037 27.9475C147.864 28.0835 147.69 28.2196 147.511 28.3598C147.151 28.6479 146.792 28.9371 146.433 29.2272C145.105 30.2653 145.105 30.2653 144.194 30.4168C143.656 30.2938 143.656 30.2938 143.23 29.8272C143.07 28.1782 143.6 26.7558 144.072 25.2103C144.131 25.0109 144.189 24.8116 144.249 24.6062C144.304 24.4272 144.358 24.2483 144.415 24.0639C144.529 23.4077 144.488 22.9965 144.295 22.3629C143.957 21.9483 143.957 21.9483 143.512 21.6184C143.353 21.4896 143.194 21.3607 143.03 21.228C142.863 21.0973 142.696 20.9667 142.524 20.8321C140.313 19.0656 140.313 19.0656 139.821 18.3974C139.848 17.6539 139.848 17.6539 140.034 16.9978C140.561 16.7097 140.94 16.7203 141.529 16.699C141.85 16.6859 141.85 16.6859 142.177 16.6726C142.401 16.6644 142.626 16.6563 142.857 16.648C143.507 16.6241 144.156 16.5982 144.805 16.5609C145.239 16.5378 145.673 16.5313 146.107 16.5313C146.747 16.2501 146.786 16.1008 147.059 15.4306C147.181 15.0609 147.298 14.6889 147.41 14.3153C147.535 13.9319 147.66 13.5486 147.786 13.1654C147.844 12.9812 147.903 12.7969 147.963 12.6071C148.255 11.7137 148.618 10.8605 148.981 10Z" fill="#FCCB12"/>
<path d="M146.85 16.545C149.984 16.5207 153.116 16.5207 156.249 16.6179C156.494 16.6232 156.739 16.6284 156.991 16.6338C157.33 16.6462 157.33 16.6462 157.676 16.6589C157.874 16.665 158.072 16.6711 158.277 16.6774C158.869 16.7964 159.061 16.9541 159.418 17.4781C159.575 18.1168 159.575 18.1168 159.418 18.8776C158.861 19.5304 158.215 20.0339 157.554 20.5542C157.378 20.6978 157.203 20.8414 157.022 20.9893C156.693 21.257 156.364 21.5228 156.032 21.7863C155.595 22.1339 155.163 22.4872 154.732 22.8431C154.94 24.1735 155.225 25.438 155.61 26.7211C155.951 27.9028 156.158 28.8411 156.01 30.0742C155.371 30.5407 155.371 30.5407 154.904 30.5307C154.034 30.2063 153.357 29.6516 152.615 29.0683C152.32 28.8407 152.025 28.6132 151.73 28.3858C151.59 28.2731 151.449 28.1604 151.305 28.0443C150.859 27.6951 150.965 27.6003 150.258 27.2751C149.725 26.7138 149.619 26.8085 149.541 26.2321C149.537 25.4745 149.563 24.7225 149.592 23.9657C149.62 20.7845 148.741 19.0991 146.85 16.7783C146.85 16.7013 146.85 16.6243 146.85 16.545Z" fill="#F59021"/>
<path d="M66.1133 46.3892C69.347 46.3892 72.5807 46.3892 75.9125 46.3892C75.9125 48.5445 75.9125 50.6998 75.9125 52.9205C72.6787 52.9205 69.445 52.9205 66.1133 52.9205C66.1133 50.7651 66.1133 48.6098 66.1133 46.3892Z" fill="#D1D2D4"/>
<path d="M149.739 10C149.98 10.0048 150.222 10.0096 150.471 10.0146C151.109 11.3383 151.589 12.6425 152.002 14.0675C152.111 14.4387 152.221 14.8099 152.331 15.181C152.378 15.3425 152.425 15.5041 152.473 15.6706C152.598 16.0972 152.598 16.0972 152.814 16.5459C152.18 16.5523 151.545 16.5569 150.91 16.5605C150.645 16.5634 150.645 16.5634 150.374 16.5664C149.182 16.5715 148.032 16.4786 146.85 16.3126C147.225 14.8433 147.667 13.4113 148.154 11.9827C148.211 11.816 148.268 11.6493 148.326 11.4775C148.83 10.0175 148.83 10.0175 149.739 10Z" fill="#F9D20B"/>
<path d="M153.453 16.6109C154.398 16.5907 155.344 16.5782 156.289 16.5672C156.558 16.5613 156.827 16.5555 157.104 16.5494C157.362 16.5472 157.619 16.5449 157.884 16.5426C158.122 16.5389 158.359 16.5353 158.604 16.5315C159.205 16.6109 159.205 16.6109 159.597 16.9252C159.844 17.3107 159.844 17.3107 160 17.9495C159.747 19.1819 158.897 19.672 157.993 20.3869C157.819 20.5304 157.645 20.674 157.466 20.8219C156.648 21.4915 155.613 22.2635 154.731 22.8296C154.481 21.9505 154.446 20.9169 154.199 20.037C154.128 19.7869 154.056 19.5369 153.983 19.2793C153.916 19.0395 153.849 18.7997 153.779 18.5527C153.717 18.3316 153.654 18.1105 153.59 17.8827C153.453 17.3107 153.453 17.3107 153.453 16.6109Z" fill="#FAA818"/>
<path d="M154.092 23.2961C154.303 23.3731 154.514 23.4501 154.731 23.5294C154.921 23.9545 154.921 23.9545 155.073 24.5071C155.157 24.8091 155.157 24.8091 155.242 25.1171C155.325 25.4353 155.325 25.4353 155.411 25.76C155.498 26.0687 155.498 26.0687 155.587 26.3837C155.926 27.6449 156.135 28.7455 156.01 30.0607C155.371 30.5273 155.371 30.5273 154.905 30.5181C154.027 30.19 153.339 29.6281 152.588 29.0402C152.437 28.9247 152.287 28.8093 152.131 28.6903C151.427 28.1488 150.729 27.6003 150.045 27.0283C150.289 26.2257 150.446 26.1203 151.063 25.6561C151.225 25.5331 151.387 25.4101 151.554 25.2834C151.724 25.1568 151.894 25.0302 152.069 24.8998C152.404 24.6467 152.739 24.3934 153.074 24.1399C153.223 24.0283 153.372 23.9167 153.526 23.8017C153.87 23.5535 153.87 23.5535 154.092 23.2961Z" fill="#FAB315"/>
<path d="M144.792 23.0771C146.406 24.1712 147.956 25.3346 149.479 26.5761C148.638 27.5574 147.73 28.3311 146.722 29.0982C146.575 29.2153 146.428 29.3324 146.277 29.4531C145.414 30.1115 144.818 30.5131 143.727 30.3083C143.301 29.8417 143.301 29.8417 143.228 29.1629C143.261 27.9 143.681 26.7272 144.046 25.541C144.117 25.3036 144.189 25.0662 144.262 24.8216C144.437 24.2394 144.613 23.658 144.792 23.0771Z" fill="#F8AD18"/>
<path d="M152.234 25.2268C152.795 25.4602 152.964 25.7292 153.302 26.2674C153.413 26.4413 153.523 26.6153 153.637 26.7945C153.75 26.9775 153.863 27.1604 153.979 27.3489C154.094 27.5292 154.208 27.7095 154.326 27.8952C154.821 28.681 155.281 29.4455 155.657 30.3085C155.298 30.4679 155.298 30.4679 154.805 30.5417C154.291 30.2729 154.291 30.2729 153.726 29.8565C153.523 29.7074 153.319 29.5582 153.109 29.4046C152.101 28.633 151.104 27.8469 150.118 27.0428C150.348 26.2863 150.471 26.1526 151.037 25.7015C151.163 25.5969 151.29 25.4923 151.42 25.3844C151.822 25.1767 151.822 25.1767 152.234 25.2268Z" fill="#FEC715"/>
<path d="M159.418 17.9312C159.488 18.2391 159.592 18.4158 159.664 18.733C159.345 19.3161 157.378 20.8806 156.739 21.3472C156.999 21.1251 156.485 21.5648 156.739 21.3472C156.584 21.4803 156.429 21.6135 156.269 21.7506C155.774 22.1481 155.263 22.4921 154.731 22.8296C154.624 22.4558 154.518 22.0816 154.412 21.7071C154.353 21.4987 154.26 21.2949 154.199 21.0802C154.059 20.5016 154.092 20.497 154.092 19.7972C155.85 19.1814 157.607 18.5656 159.418 17.9312Z" fill="#FAD20A"/>
<path d="M149.905 20.9778C150.512 21.8088 151.094 22.6387 151.663 23.4999C151.813 23.7275 151.964 23.9552 152.119 24.1897C152.232 24.3614 152.345 24.5331 152.462 24.71C151.787 25.4693 151.114 26.1842 150.331 26.8093C150.191 26.8093 150.05 26.8093 149.905 26.8093C149.905 24.8849 149.905 22.9605 149.905 20.9778Z" fill="#F9A21F"/>
<path d="M147.136 16.5457C148.05 16.5457 148.964 16.5457 149.905 16.5457C149.905 17.9312 149.905 19.3168 149.905 20.7444C149.095 19.8575 148.534 19.1464 147.921 18.1202C147.773 17.8736 147.624 17.627 147.471 17.373C147.136 16.7789 147.136 16.7789 147.136 16.5457Z" fill="#F9A21F"/>
</svg>
