<svg width="526" height="258" viewBox="0 0 526 258" fill="none" xmlns="http://www.w3.org/2000/svg">
<g opacity="0.15">
<path d="M114 177.548C141.574 177.548 163.927 155.365 163.927 128C163.927 100.635 141.574 78.4515 114 78.4515C86.4263 78.4515 64.0732 100.635 64.0732 128C64.0732 155.365 86.4263 177.548 114 177.548Z" stroke="black" stroke-width="12"/>
<path d="M114 0.5C125.216 0.5 134.302 9.52322 134.302 20.6455C134.302 31.7676 125.216 40.79 114 40.79C102.783 40.79 93.697 31.7676 93.6968 20.6455C93.6968 9.52327 102.783 0.50008 114 0.5Z" fill="black" stroke="black"/>
<path d="M207.197 54.1775C218.414 54.1775 227.5 63.2007 227.5 74.323C227.5 85.4451 218.414 94.4675 207.197 94.4675C195.981 94.4674 186.895 85.4451 186.895 74.323C186.895 63.2008 195.981 54.1776 207.197 54.1775Z" fill="black" stroke="black"/>
<path d="M207.197 161.532C218.414 161.532 227.5 170.555 227.5 181.678C227.5 192.8 218.414 201.822 207.197 201.822C195.981 201.822 186.895 192.8 186.895 181.678C186.895 170.555 195.981 161.532 207.197 161.532Z" fill="black" stroke="black"/>
<path d="M114 215.21C125.216 215.21 134.302 224.233 134.302 235.355C134.302 246.477 125.216 255.5 114 255.5C102.783 255.5 93.697 246.477 93.6968 235.355C93.6968 224.233 102.783 215.21 114 215.21Z" fill="black" stroke="black"/>
<path d="M20.8027 161.532C32.0193 161.532 41.1055 170.555 41.1055 181.678C41.1053 192.8 32.0192 201.822 20.8027 201.822C9.58635 201.822 0.500189 192.8 0.5 181.678C0.5 170.555 9.58624 161.532 20.8027 161.532Z" fill="black" stroke="black"/>
<path d="M20.8027 54.1775C32.0193 54.1775 41.1055 63.2007 41.1055 74.323C41.1053 85.4451 32.0192 94.4675 20.8027 94.4675C9.58635 94.4674 0.500189 85.4451 0.5 74.323C0.5 63.2008 9.58624 54.1776 20.8027 54.1775Z" fill="black" stroke="black"/>
<path d="M114 45.4192V78.4514" stroke="black" stroke-width="8" stroke-linecap="round"/>
<path d="M184.729 86.7095L155.605 103.226" stroke="black" stroke-width="8" stroke-linecap="round"/>
<path d="M184.729 169.29L155.605 152.774" stroke="black" stroke-width="8" stroke-linecap="round"/>
<path d="M114 210.581V177.548" stroke="black" stroke-width="8" stroke-linecap="round"/>
<path d="M43.2705 169.29L72.3945 152.774" stroke="black" stroke-width="8" stroke-linecap="round"/>
<path d="M43.2705 86.7095L72.3945 103.226" stroke="black" stroke-width="8" stroke-linecap="round"/>
</g>
<path d="M330.665 195.5H310.756C310.392 192.924 309.65 190.636 308.528 188.636C307.407 186.606 305.968 184.879 304.21 183.455C302.453 182.03 300.422 180.939 298.119 180.182C295.847 179.424 293.377 179.045 290.71 179.045C285.892 179.045 281.695 180.242 278.119 182.636C274.544 185 271.771 188.455 269.801 193C267.831 197.515 266.847 203 266.847 209.455C266.847 216.091 267.831 221.667 269.801 226.182C271.801 230.697 274.589 234.106 278.165 236.409C281.741 238.712 285.877 239.864 290.574 239.864C293.21 239.864 295.65 239.515 297.892 238.818C300.165 238.121 302.18 237.106 303.938 235.773C305.695 234.409 307.15 232.758 308.301 230.818C309.483 228.879 310.301 226.667 310.756 224.182L330.665 224.273C330.15 228.545 328.862 232.667 326.801 236.636C324.771 240.576 322.028 244.106 318.574 247.227C315.15 250.318 311.059 252.773 306.301 254.591C301.574 256.379 296.225 257.273 290.256 257.273C281.953 257.273 274.528 255.394 267.983 251.636C261.468 247.879 256.316 242.439 252.528 235.318C248.771 228.197 246.892 219.576 246.892 209.455C246.892 199.303 248.801 190.667 252.619 183.545C256.438 176.424 261.619 171 268.165 167.273C274.71 163.515 282.074 161.636 290.256 161.636C295.65 161.636 300.65 162.394 305.256 163.909C309.892 165.424 313.998 167.636 317.574 170.545C321.15 173.424 324.059 176.955 326.301 181.136C328.574 185.318 330.028 190.106 330.665 195.5ZM359.074 256H337.983L370.119 162.909H395.483L427.574 256H406.483L383.165 184.182H382.438L359.074 256ZM357.756 219.409H407.574V234.773H357.756V219.409ZM438.778 256V162.909H475.506C482.566 162.909 488.581 164.258 493.551 166.955C498.521 169.621 502.309 173.333 504.915 178.091C507.551 182.818 508.869 188.273 508.869 194.455C508.869 200.636 507.536 206.091 504.869 210.818C502.203 215.545 498.339 219.227 493.278 221.864C488.248 224.5 482.157 225.818 475.006 225.818H451.597V210.045H471.824C475.612 210.045 478.733 209.394 481.188 208.091C483.672 206.758 485.521 204.924 486.733 202.591C487.975 200.227 488.597 197.515 488.597 194.455C488.597 191.364 487.975 188.667 486.733 186.364C485.521 184.03 483.672 182.227 481.188 180.955C478.703 179.652 475.551 179 471.733 179H458.46V256H438.778Z" fill="#2E59B2"/>
</svg>
