<svg width="542" height="256" viewBox="0 0 542 256" fill="none" xmlns="http://www.w3.org/2000/svg">
<g opacity="0.15">
<path d="M114 177.548C141.574 177.548 163.927 155.365 163.927 128C163.927 100.635 141.574 78.4515 114 78.4515C86.4263 78.4515 64.0732 100.635 64.0732 128C64.0732 155.365 86.4263 177.548 114 177.548Z" stroke="black" stroke-width="12"/>
<path d="M114 0.5C125.216 0.5 134.302 9.52322 134.302 20.6455C134.302 31.7676 125.216 40.79 114 40.79C102.783 40.79 93.697 31.7676 93.6968 20.6455C93.6968 9.52327 102.783 0.50008 114 0.5Z" fill="black" stroke="black"/>
<path d="M207.197 54.1774C218.414 54.1774 227.5 63.2007 227.5 74.3229C227.5 85.4451 218.414 94.4675 207.197 94.4675C195.981 94.4674 186.895 85.445 186.895 74.3229C186.895 63.2007 195.981 54.1775 207.197 54.1774Z" fill="black" stroke="black"/>
<path d="M207.197 161.532C218.414 161.532 227.5 170.555 227.5 181.678C227.5 192.8 218.414 201.822 207.197 201.822C195.981 201.822 186.895 192.8 186.895 181.678C186.895 170.555 195.981 161.532 207.197 161.532Z" fill="black" stroke="black"/>
<path d="M114 215.21C125.216 215.21 134.302 224.233 134.302 235.355C134.302 246.477 125.216 255.5 114 255.5C102.783 255.5 93.697 246.477 93.6968 235.355C93.6968 224.233 102.783 215.21 114 215.21Z" fill="black" stroke="black"/>
<path d="M20.8027 161.532C32.0193 161.532 41.1055 170.555 41.1055 181.678C41.1053 192.8 32.0192 201.822 20.8027 201.822C9.58635 201.822 0.500189 192.8 0.5 181.678C0.5 170.555 9.58624 161.532 20.8027 161.532Z" fill="black" stroke="black"/>
<path d="M20.8027 54.1774C32.0193 54.1774 41.1055 63.2007 41.1055 74.3229C41.1053 85.4451 32.0192 94.4675 20.8027 94.4675C9.58635 94.4674 0.500189 85.445 0.5 74.3229C0.5 63.2007 9.58624 54.1775 20.8027 54.1774Z" fill="black" stroke="black"/>
<path d="M114 45.4193V78.4515" stroke="black" stroke-width="8" stroke-linecap="round"/>
<path d="M184.729 86.7095L155.605 103.226" stroke="black" stroke-width="8" stroke-linecap="round"/>
<path d="M184.729 169.29L155.605 152.774" stroke="black" stroke-width="8" stroke-linecap="round"/>
<path d="M114 210.581V177.548" stroke="black" stroke-width="8" stroke-linecap="round"/>
<path d="M43.2705 169.29L72.3945 152.774" stroke="black" stroke-width="8" stroke-linecap="round"/>
<path d="M43.2705 86.7095L72.3945 103.226" stroke="black" stroke-width="8" stroke-linecap="round"/>
</g>
<path d="M346.665 125.5H326.756C326.392 122.924 325.65 120.636 324.528 118.636C323.407 116.606 321.968 114.879 320.21 113.455C318.453 112.03 316.422 110.939 314.119 110.182C311.847 109.424 309.377 109.045 306.71 109.045C301.892 109.045 297.695 110.242 294.119 112.636C290.544 115 287.771 118.455 285.801 123C283.831 127.515 282.847 133 282.847 139.455C282.847 146.091 283.831 151.667 285.801 156.182C287.801 160.697 290.589 164.106 294.165 166.409C297.741 168.712 301.877 169.864 306.574 169.864C309.21 169.864 311.65 169.515 313.892 168.818C316.165 168.121 318.18 167.106 319.938 165.773C321.695 164.409 323.15 162.758 324.301 160.818C325.483 158.879 326.301 156.667 326.756 154.182L346.665 154.273C346.15 158.545 344.862 162.667 342.801 166.636C340.771 170.576 338.028 174.106 334.574 177.227C331.15 180.318 327.059 182.773 322.301 184.591C317.574 186.379 312.225 187.273 306.256 187.273C297.953 187.273 290.528 185.394 283.983 181.636C277.468 177.879 272.316 172.439 268.528 165.318C264.771 158.197 262.892 149.576 262.892 139.455C262.892 129.303 264.801 120.667 268.619 113.545C272.438 106.424 277.619 101 284.165 97.2727C290.71 93.5151 298.074 91.6364 306.256 91.6364C311.65 91.6364 316.65 92.3939 321.256 93.9091C325.892 95.4242 329.998 97.6364 333.574 100.545C337.15 103.424 340.059 106.955 342.301 111.136C344.574 115.318 346.028 120.106 346.665 125.5ZM375.074 186H353.983L386.119 92.9091H411.483L443.574 186H422.483L399.165 114.182H398.438L375.074 186ZM373.756 149.409H423.574V164.773H373.756V149.409ZM454.778 186V92.9091H491.506C498.566 92.9091 504.581 94.2576 509.551 96.9545C514.521 99.6212 518.309 103.333 520.915 108.091C523.551 112.818 524.869 118.273 524.869 124.455C524.869 130.636 523.536 136.091 520.869 140.818C518.203 145.545 514.339 149.227 509.278 151.864C504.248 154.5 498.157 155.818 491.006 155.818H467.597V140.045H487.824C491.612 140.045 494.733 139.394 497.188 138.091C499.672 136.758 501.521 134.924 502.733 132.591C503.975 130.227 504.597 127.515 504.597 124.455C504.597 121.364 503.975 118.667 502.733 116.364C501.521 114.03 499.672 112.227 497.188 110.955C494.703 109.652 491.551 109 487.733 109H474.46V186H454.778Z" fill="#2E59B2"/>
</svg>
