<svg width="64" height="72" viewBox="0 0 64 72" fill="none" xmlns="http://www.w3.org/2000/svg">
<g opacity="0.15">
<path d="M31.9999 22.1619C39.7399 22.1619 46.0145 28.3889 46.0145 36.0702C46.0145 43.7516 39.7399 49.9785 31.9999 49.9785C24.2599 49.9785 17.9854 43.7516 17.9854 36.0702C17.9854 28.3889 24.2599 22.1619 31.9999 22.1619Z" stroke="black" stroke-width="5"/>
<path d="M32 71.5C34.4853 71.5 36.5 69.4853 36.5 67C36.5 64.5147 34.4853 62.5 32 62.5C29.5147 62.5 27.5 64.5147 27.5 67C27.5 69.4853 29.5147 71.5 32 71.5Z" fill="black" stroke="black"/>
<path d="M59 55.5C61.4853 55.5 63.5 53.4853 63.5 51C63.5 48.5147 61.4853 46.5 59 46.5C56.5147 46.5 54.5 48.5147 54.5 51C54.5 53.4853 56.5147 55.5 59 55.5Z" fill="black" stroke="black"/>
<path d="M59 25.5C61.4853 25.5 63.5 23.4853 63.5 21C63.5 18.5147 61.4853 16.5 59 16.5C56.5147 16.5 54.5 18.5147 54.5 21C54.5 23.4853 56.5147 25.5 59 25.5Z" fill="black" stroke="black"/>
<path d="M32 9.5C34.4853 9.5 36.5 7.48528 36.5 5C36.5 2.51472 34.4853 0.5 32 0.5C29.5147 0.5 27.5 2.51472 27.5 5C27.5 7.48528 29.5147 9.5 32 9.5Z" fill="black" stroke="black"/>
<path d="M5 25.5C7.48528 25.5 9.5 23.4853 9.5 21C9.5 18.5147 7.48528 16.5 5 16.5C2.51472 16.5 0.5 18.5147 0.5 21C0.5 23.4853 2.51472 25.5 5 25.5Z" fill="black" stroke="black"/>
<path d="M5 55.5C7.48528 55.5 9.5 53.4853 9.5 51C9.5 48.5147 7.48528 46.5 5 46.5C2.51472 46.5 0.5 48.5147 0.5 51C0.5 53.4853 2.51472 55.5 5 55.5Z" fill="black" stroke="black"/>
<path d="M32 59.2507V49.9785" stroke="black" stroke-width="4" stroke-linecap="round"/>
<path d="M51.8539 47.6605L43.6787 43.0244" stroke="black" stroke-width="4" stroke-linecap="round"/>
<path d="M51.8539 24.48L43.6787 29.1161" stroke="black" stroke-width="4" stroke-linecap="round"/>
<path d="M32.1754 12.8639L32.1753 22.5" stroke="black" stroke-width="4" stroke-linecap="round"/>
<path d="M12.146 47.6605L16.2336 45.3425L20.3212 43.0244" stroke="black" stroke-width="4" stroke-linecap="round"/>
<path d="M11.5 25L19.5 29.6189" stroke="black" stroke-width="4" stroke-linecap="round"/>
</g>
</svg>
